PathFileType	4	(X/Y/Z)	/Users/niels/Desktop/University/Third Semester/Perception and Action/Exam/Gymnastics Motion Tracking/Code for Gym Tracking/Analyzed Data/Webcam_Backflip/id1_1_baseline_Sports2D/id1_1_baseline_Sports2D_px_person00.trc
DataRate	CameraRate	NumFrames	NumMarkers	Units	OrigDataRate	OrigDataStartFrame	OrigNumFrames
29.928057553956833	29.928057553956833	11	22	m	29.928057553956833	0	417
Frame#	Time	Hip			RHip			RKnee			RAnkle			RBigToe			RSmallToe			RHeel			LHip			LKnee			LAnkle			LBigToe			LSmallToe			LHeel			Neck			Head			Nose			RShoulder			RElbow			RWrist			LShoulder			LElbow			LWrist		
		X1	Y1	Z1	X2	Y2	Z2	X3	Y3	Z3	X4	Y4	Z4	X5	Y5	Z5	X6	Y6	Z6	X7	Y7	Z7	X8	Y8	Z8	X9	Y9	Z9	X10	Y10	Z10	X11	Y11	Z11	X12	Y12	Z12	X13	Y13	Z13	X14	Y14	Z14	X15	Y15	Z15	X16	Y16	Z16	X17	Y17	Z17	X18	Y18	Z18	X19	Y19	Z19	X20	Y20	Z20	X21	Y21	Z21	X22	Y22	Z22
0	0.0	1.0267124117028712	-0.5325435217076476	0.0	0.9701235101573839	-0.5376866386823755	0.0	0.9880891679783621	-0.7743091360125134	0.0	1.0035077010690125	-1.021188380949307	0.0	1.0472637177051216	-1.072646576868826	0.0	1.0086762538608243	-1.0777854203513697	0.0	0.9983589766997363	-1.0443309515316486	0.0	1.078152461500635	-0.5402643127469425	0.0	1.060153779665192	-0.7717427783432768	0.0	1.0344432521414613	-0.9491962256126111	0.0	1.0807365610153334	-0.9877837089368838	0.0	1.0910276027020183	-0.974916060672324	0.0	1.0241530083972736	-0.9594787217000755	0.0	1.0524112063679387	-0.1699100421519114	0.0	1.0601284676793037	-0.018160673424001805	0.0	1.0601224089906818	-0.10045844196613063	0.0	0.941834549192947	-0.23163913532586392	0.0	0.8749583069648095	-0.39623692789095577	0.0	0.8132238409596233	-0.5376873437226635	0.0	1.1553032369995604	-0.24449858530466603	0.0	1.17845434723142	-0.40137533902522365	0.0	1.2041665133564974	-0.5222511651690507	0.0
1	0.03341346153846154	1.0248664929204199	-0.5327439207250432	0.0	0.9682903450386869	-0.5371173999983508	0.0	0.9861508270239003	-0.7739936828695656	0.0	1.0031953794202482	-1.020933623990964	0.0	1.0467097336940827	-1.0701883481800407	0.0	1.0086021820135465	-1.074385940821254	0.0	0.9980595875911373	-1.0441609976806518	0.0	1.0766391725803848	-0.5407362854064468	0.0	1.0569252779225806	-0.7706039668230515	0.0	1.0342650879310598	-0.9534860432730886	0.0	1.0804945381115427	-0.9913266952297755	0.0	1.0912766738128314	-0.978745309826667	0.0	1.0253073371034103	-0.9632164311326291	0.0	1.056396071032806	-0.17227408238202965	0.0	1.0642419862293038	-0.0222275508257277	0.0	1.0644566517465475	-0.10394164509645054	0.0	0.94561840682328	-0.23345752829445077	0.0	0.8773167096677389	-0.39584346062685394	0.0	0.8165089915802256	-0.5370945010590158	0.0	1.1577744594323574	-0.24737620551978964	0.0	1.1797788381254988	-0.4034441732142352	0.0	1.2024485365733728	-0.523798775521455	0.0
2	0.06682692307692308	1.0230968874049535	-0.5327939934999277	0.0	0.9664874524582223	-0.5364908028549026	0.0	0.9837945665535003	-0.7734227942144088	0.0	1.0025698731529986	-1.0202394335075349	0.0	1.0463869241066834	-1.0674625027546962	0.0	1.0086193901108025	-1.070906168014605	0.0	0.9972726152107043	-1.0435705101695665	0.0	1.0751266675552016	-0.5412053885332315	0.0	1.053871356435486	-0.7693480992006474	0.0	1.0340245658284986	-0.956707871825402	0.0	1.0800569033449587	-0.9939413610631296	0.0	1.0912283449737286	-0.981625995194405	0.0	1.0258928698452885	-0.9660063532093459	0.0	1.0601441372134268	-0.17470980930031685	0.0	1.068324527679354	-0.02632846349180347	0.0	1.068526041262807	-0.10742500985453836	0.0	0.949069535098978	-0.23500485186627015	0.0	0.8799287858490141	-0.39551185803871974	0.0	0.8208064596689331	-0.5366362226457098	0.0	1.1601433507241088	-0.2502991850968557	0.0	1.180905796599904	-0.40558117967432533	0.0	1.200865897748325	-0.5256750020021995	0.0
3	0.10024038461538462	1.0214774786226655	-0.5327962716626968	0.0	0.9647631207899229	-0.5358757463790917	0.0	0.9806635017023982	-0.7724227598592804	0.0	1.0011671384416028	-1.0186559125692627	0.0	1.0459732741337922	-1.0643639660802315	0.0	1.0082673522169054	-1.0672833510827529	0.0	0.9954145927150561	-1.0419822875836828	0.0	1.07357328498344	-0.5417442602882074	0.0	1.0510906101993487	-0.7680311292896697	0.0	1.0335239045161768	-0.9582448326256677	0.0	1.0792666981465724	-0.995292090900781	0.0	1.0906618502805083	-0.9831396460738532	0.0	1.0254585948420887	-0.967299305708642	0.0	1.0634336143755494	-0.1772658078607534	0.0	1.0722256326380775	-0.030391992911402658	0.0	1.072046031731309	-0.11086081743477827	0.0	0.9519270418068903	-0.23610730738281652	0.0	0.8829275200435401	-0.395288207931537	0.0	0.8268331876647874	-0.536408886505936	0.0	1.1622891451967627	-0.2532019795140021	0.0	1.1816528063764662	-0.40787736399549157	0.0	1.1995150814060629	-0.5281711669269534	0.0
4	0.13365384615384615	1.0200724448046359	-0.5330123136297471	0.0	0.9632018570526207	-0.5354358309698994	0.0	0.9765958472993723	-0.7710054037399908	0.0	0.9984577780748117	-1.0157384131808078	0.0	1.0446098786808227	-1.060951858231588	0.0	1.0065663883243587	-1.0634717057904577	0.0	0.9918928317260306	-1.0386740682730815	0.0	1.0719491940615156	-0.5424741848550259	0.0	1.048545436437518	-0.7668474464106239	0.0	1.0323872399574958	-0.9581363147732538	0.0	1.078040539436059	-0.9957631394626598	0.0	1.0894522277485263	-0.983593389210807	0.0	1.0236898010313205	-0.9672407222516217	0.0	1.0660766149878798	-0.17992033327519658	0.0	1.0756884256224568	-0.03426990613851411	0.0	1.0747642868505578	-0.11414666737664173	0.0	0.9540726965261264	-0.2367569088965872	0.0	0.886265838541473	-0.39522264781809935	0.0	0.8347832661818699	-0.53647346646069	0.0	1.1640400548615617	-0.2559069298176792	0.0	1.1819246741346836	-0.41036955811127646	0.0	1.198453059905273	-0.531378296958698	0.0
5	0.16706730769230768	1.018894858588288	-0.5335714271404178	0.0	0.9619003970458523	-0.5352822055996908	0.0	0.9716933329575423	-0.7693510713261416	0.0	0.9939154700115002	-1.0111045167219137	0.0	1.0409993657702972	-1.057226045468899	0.0	1.0022196913590662	-1.059291027175446	0.0	0.9862623367863443	-1.0329619854305039	0.0	1.070306125440252	-0.5434411072700159	0.0	1.046049859612013	-0.765900819120919	0.0	1.0301933578869094	-0.9569680773531899	0.0	1.0764465137456976	-0.9961346941605028	0.0	1.0875785951790329	-0.9837932069833949	0.0	1.0204150305829565	-0.966646137920352	0.0	1.067916596627317	-0.18252623772312307	0.0	1.0784665267638747	-0.03784113430031566	0.0	1.0765034958713258	-0.11715382079541942	0.0	0.9554578918323963	-0.23711196816535424	0.0	0.8897318887057607	-0.3953761362123045	0.0	0.8442683567594844	-0.5368182627758503	0.0	1.1651791780192196	-0.2582368211183596	0.0	1.1817236008313836	-0.41296458499517325	0.0	1.1976877339878154	-0.5350945436898932	0.0
6	0.20048076923076924	1.017882622629452	-0.5343603741553623	0.0	0.960884108198383	-0.5353949998012614	0.0	0.966249501129803	-0.7676496124261548	0.0	0.9871708300611804	-1.0046733938603285	0.0	1.0337308950616253	-1.05302801483124	0.0	0.9940474150988563	-1.054412447896056	0.0	0.9784908562794548	-1.0246624022296433	0.0	1.0687592815761615	-0.5445577371365761	0.0	1.0434188112759866	-0.7650964807393135	0.0	1.0268289340752206	-0.9554251468459412	0.0	1.0747517261198944	-0.9969387225451299	0.0	1.0851976963853425	-0.9844074556181843	0.0	1.0157727349011487	-0.9664078306651203	0.0	1.0688398269290527	-0.18483568701695488	0.0	1.080391141350473	-0.04101535444335865	0.0	1.077184732731824	-0.11976140106289507	0.0	0.956004000489242	-0.2373939601081416	0.0	0.8930298818534745	-0.39576108285236944	0.0	0.8544185436290834	-0.537314535522439	0.0	1.1655342693148043	-0.2601311532367703	0.0	1.181104062727082	-0.41546865586219706	0.0	1.1971327213049254	-0.5388940447962444	0.0
7	0.23389423076923077	1.0168889042278564	-0.5351300997558995	0.0	0.9600096326539691	-0.5356502059802912	0.0	0.9605844608795102	-0.7659911538501043	0.0	0.9781914316215982	-0.996943490148207	0.0	1.0217489453011732	-1.048189911181684	0.0	0.9815067386096861	-1.0485733140483113	0.0	0.9691379007340737	-1.0146098508288388	0.0	1.0673694750055276	-0.5456575384098149	0.0	1.0406830534361204	-0.7642987767201559	0.0	1.0227952044307373	-0.9538709236030724	0.0	1.0732510632338728	-0.9980058935410546	0.0	1.0826360719378456	-0.9854560808856335	0.0	1.0103848965166566	-0.9667800343839211	0.0	1.0687945560074184	-0.1866344602564893	0.0	1.081307109813685	-0.04369661179868489	0.0	1.0768277965757511	-0.12189693273075937	0.0	0.9556060965271636	-0.2377798259000907	0.0	0.8958446871575287	-0.39629296262633473	0.0	0.8640879029060369	-0.5377200906888175	0.0	1.1650323695228793	-0.26162225576643605	0.0	1.180123657670905	-0.41767621993702303	0.0	1.1965748883218603	-0.5423203316007618	0.0
8	0.2673076923076923	1.015688782853174	-0.5356196525887991	0.0	0.9589918781018105	-0.5358552679761484	0.0	0.9548865745977091	-0.7643661482700769	0.0	0.9672562510539269	-0.988837408883113	0.0	1.0048055049156552	-1.0426721314609546	0.0	0.9649575450175425	-1.041730416484886	0.0	0.9590748850100611	-1.0044228901227166	0.0	1.0660429524989248	-0.546545011493324	0.0	1.0380929742795661	-0.7634745378228829	0.0	1.0189802529797733	-0.9524135412140996	0.0	1.071999823712134	-0.9987989048740863	0.0	1.0802045116009076	-0.98655962235371	0.0	1.0051300664186296	-0.9674096216621485	0.0	1.0677966683893167	-0.18786341573613854	0.0	1.0810406157979466	-0.045835647870255875	0.0	1.075502688008318	-0.12356413027906221	0.0	0.9541939711320607	-0.23838223871283826	0.0	0.8978524155532206	-0.39683643386025297	0.0	0.8721311755519567	-0.5377396339519779	0.0	1.163669504441885	-0.2627208766131339	0.0	1.1787922455713973	-0.4194006976626883	0.0	1.1957331126071338	-0.5450802925406723	0.0
9	0.30072115384615383	1.0140636653502284	-0.5356499912577287	0.0	0.9575557087432621	-0.5358155197207846	0.0	0.9490831301684937	-0.762692626193827	0.0	0.9547467249797484	-0.9811333470702716	0.0	0.9837293159402902	-1.036603061725414	0.0	0.9455157529988696	-1.034081434937887	0.0	0.9488817503472141	-0.9954890162737706	0.0	1.0645424268181471	-0.5470432291595884	0.0	1.0358899633715157	-0.7626831849446459	0.0	1.0160366955750515	-0.9511693801243358	0.0	1.0708239068158023	-0.9991168619984374	0.0	1.0780861486905247	-0.9875344188049717	0.0	1.0006333326817216	-0.9679267802539944	0.0	1.0658889513132463	-0.1886273750145516	0.0	1.0794712353912075	-0.047476204357401214	0.0	1.0732478279593047	-0.12482171762998627	0.0	0.9517861964218964	-0.2392758013340067	0.0	0.8987329501005218	-0.3972970855860493	0.0	0.8776738891374488	-0.5371553088085271	0.0	1.1614861604074687	-0.26340008631519024	0.0	1.1770328304857864	-0.42047748307870847	0.0	1.194376229330736	-0.5470838613682177	0.0
10	0.33413461538461536	1.0119172315942138	-0.5352258379283134	0.0	0.955551246974232	-0.5354595980015369	0.0	0.9428257178280238	-0.7609261574417419	0.0	0.9410351071379544	-0.974182178191709	0.0	0.9603855040288832	-1.0303494109421976	0.0	0.9247343306969824	-1.0261145637681577	0.0	0.9385435507306888	-0.9883152981277102	0.0	1.0626339347491238	-0.5470980312954946	0.0	1.0341069039827977	-0.7620615940632206	0.0	1.0141016928229538	-0.9502604120139164	0.0	1.0696351066687138	-0.9992346438426448	0.0	1.0764333856458117	-0.9884598361923463	0.0	0.9970897921869578	-0.9682127573992003	0.0	1.0630671955583617	-0.18911300251875363	0.0	1.0765802972435976	-0.04870846781111665	0.0	1.0700191347330446	-0.1257171369647523	0.0	0.9485157308440094	-0.2404798835410864	0.0	0.8982569020695312	-0.3976724412582407	0.0	0.8802891047524006	-0.5359851964345661	0.0	1.158576929761666	-0.26369761565814287	0.0	1.1747362456585846	-0.42084057986587814	0.0	1.192399942611467	-0.5483513780787542	0.0
